# xmcd CD database file
#
# Track frame offsets:
#	170
#	13517
#	26902
#	45335
#	55945
#	70137
#	90427
#	100092
#	120052
#	136812
#
# Disc length: 1964 seconds
#
# Revision: 3
# Processed by: cddbd v1.5.2PL0 Copyright (c) Steve Scherf et al.
# Submitted via: CDex 1.72
#
DISCID=6f07aa0a
DTITLE=Ball, Marcia (USA-86-Hot Tamale Baby-bls) - Hot Tamale Baby
DYEAR=1986
DGENRE=Blues
TTITLE0=Never Like This Before
TTITLE1=I'm Gonna Forget About You
TTITLE2=Love's Spell
TTITLE3=I Don't Know
TTITLE4=Hot Tamale Baby
TTITLE5=That's Enough of That Stuff
TTITLE6=Don't You Know I Love You
TTITLE7=Another Man's Woman
TTITLE8=If I Ever Needed Love
TTITLE9=Uh-Uh Baby
EXTD=LABEL =Rounder Records Corp.\nID =3095\nUPC =none\nCOPYRIGHT =1986 YEAR: 1986
EXTT0=
EXTT1=
EXTT2=
EXTT3=
EXTT4=
EXTT5=
EXTT6=
EXTT7=
EXTT8=
EXTT9=
PLAYORDER=
